<svg width="73" height="73" viewBox="0 0 73 73" fill="none" xmlns="http://www.w3.org/2000/svg">
<g id="Frame" clip-path="url(#clip0_2699_356)">
<path id="Vector" d="M72.4712 58.2737V51.9382H65.7133V47.7146H63.4607V44.1949H65.7133V37.8594H48.869V39.9712H63.6015V42.083H19.9067V44.1949H61.3487V47.7146H15.3813C14.4109 47.7146 13.6215 46.9252 13.6215 45.9547C13.6215 44.9843 14.4109 44.1949 15.3813 44.1949H17.7949V42.083H15.3813C13.2466 42.083 11.5097 43.8198 11.5097 45.9547C11.5097 48.0896 13.2466 49.8264 15.3813 49.8264H63.6013V51.9382H27.2076V54.05H70.3592V56.1619H10.7353C7.43596 56.1619 4.75183 58.846 4.75183 62.1454C4.75183 65.4448 7.43596 68.1289 10.7353 68.1289H60.4737V66.0171H10.7355C8.60056 66.0171 6.86379 64.2803 6.86379 62.1454C6.86379 60.0105 8.60056 58.2737 10.7355 58.2737H68.1067V61.7934H21.2946V63.9052H68.1067V66.0171H62.5857V68.1289H70.3593V70.2407H10.7355C6.27164 70.2407 2.64015 66.6092 2.64015 62.1454C2.64015 57.6815 6.27164 54.05 10.7355 54.05H25.0959V51.9382H15.3815C12.0821 51.9382 9.39798 49.2541 9.39798 45.9547C9.39798 42.6553 12.0821 39.9712 15.3815 39.9712H46.7571V37.8594H15.3815C10.9177 37.8594 7.28616 41.4909 7.28616 45.9547C7.28616 48.3399 8.32363 50.487 9.97043 51.9699C4.69847 52.3628 0.52832 56.7747 0.52832 62.1454C0.52832 67.7737 5.10718 72.3525 10.7355 72.3525H72.4712V66.0171H70.2185V58.2737H72.4712Z" fill="black"/>
<path id="Vector_2" d="M17.0713 61.793H19.1831V63.9048H17.0713V61.793Z" fill="black"/>
<path id="Vector_3" d="M19.9567 31.7369L20.4269 32.0505C20.6102 32.1727 25.0482 35.0436 36.4993 35.0436C47.9505 35.0436 52.3884 32.1727 52.5717 32.0505L53.042 31.7369V13.959L59.3774 11.8472V21.8163C57.7544 22.2772 56.5617 23.7717 56.5617 25.5404V30.82H64.305V25.5404C64.305 23.7717 63.1123 22.2772 61.4893 21.8163V11.1433L65.1803 9.91291L54.091 6.21637L53.4231 8.21979L58.5022 9.91277L36.4993 17.2471L14.4965 9.91291L36.4993 2.57868L51.4197 7.55217L52.0876 5.54876L36.4993 0.352539L7.81836 9.91291L19.9567 13.959V31.7369ZM62.1932 25.5404V28.7082H58.6735V25.5404C58.6735 24.57 59.4629 23.7806 60.4334 23.7806C61.4038 23.7806 62.1932 24.57 62.1932 25.5404ZM22.0685 14.663L36.4993 19.4733L50.9301 14.663V22.9358H48.3256V25.0477H50.9301V27.1595H46.3545V29.2713H50.9301V30.5443C49.5693 31.207 45.1909 32.9318 36.4993 32.9318C27.8012 32.9318 23.4226 31.2043 22.0685 30.5449V14.663Z" fill="black"/>
<path id="Vector_4" d="M12.8477 61.793H14.9595V63.9048H12.8477V61.793Z" fill="black"/>
<path id="Vector_5" d="M42.1309 27.1592H44.2427V29.271H42.1309V27.1592Z" fill="black"/>
</g>
<defs>
<clipPath id="clip0_2699_356">
<rect width="71.9428" height="72" fill="white" transform="translate(0.52832 0.352539)"/>
</clipPath>
</defs>
</svg>
