<svg width="72" height="73" viewBox="0 0 72 73" fill="none" xmlns="http://www.w3.org/2000/svg">
<g id="Frame" clip-path="url(#clip0_2699_316)">
<path id="Vector" d="M70.8 29.1525H50.4V25.5525C50.4 25.1685 50.2163 24.8076 49.9056 24.5817L37.2 15.3417V11.1525H50.4C51.0627 11.1525 51.6 10.6152 51.6 9.95254V2.75254C51.6 2.08984 51.0627 1.55254 50.4 1.55254H37.2C37.2 0.889839 36.6627 0.352539 36 0.352539C35.3373 0.352539 34.8 0.889839 34.8 1.55254V15.3417L22.0944 24.5817C21.7838 24.8076 21.6 25.1685 21.6 25.5525V29.1525H1.2C0.5373 29.1525 0 29.6898 0 30.3525V71.1525C0 71.8152 0.5373 72.3525 1.2 72.3525H70.8C71.4627 72.3525 72 71.8152 72 71.1525V30.3525C72 29.6898 71.4627 29.1525 70.8 29.1525ZM37.2 3.95254H49.2V8.75254H37.2V3.95254ZM21.6 69.9525H2.4V31.5525H21.6V69.9525ZM40.8 69.9525H31.2V57.9525H40.8V69.9525ZM48 69.9525H43.2V56.7525C43.2 56.0898 42.6627 55.5525 42 55.5525H30C29.3373 55.5525 28.8 56.0898 28.8 56.7525V69.9525H24V26.1633L36 17.4357L48 26.1633V69.9525ZM69.6 69.9525H50.4V31.5525H69.6V69.9525Z" fill="black"/>
<path id="Vector_2" d="M10.8 35.1523H6V37.5523H10.8V35.1523Z" fill="black"/>
<path id="Vector_3" d="M18.0002 35.1523H13.2002V37.5523H18.0002V35.1523Z" fill="black"/>
<path id="Vector_4" d="M10.8 39.9521H6V42.3521H10.8V39.9521Z" fill="black"/>
<path id="Vector_5" d="M18.0002 39.9521H13.2002V42.3521H18.0002V39.9521Z" fill="black"/>
<path id="Vector_6" d="M10.8 44.7529H6V47.1529H10.8V44.7529Z" fill="black"/>
<path id="Vector_7" d="M18.0002 44.7529H13.2002V47.1529H18.0002V44.7529Z" fill="black"/>
<path id="Vector_8" d="M10.8 49.5527H6V51.9527H10.8V49.5527Z" fill="black"/>
<path id="Vector_9" d="M18.0002 49.5527H13.2002V51.9527H18.0002V49.5527Z" fill="black"/>
<path id="Vector_10" d="M10.8 54.3525H6V56.7525H10.8V54.3525Z" fill="black"/>
<path id="Vector_11" d="M18.0002 54.3525H13.2002V56.7525H18.0002V54.3525Z" fill="black"/>
<path id="Vector_12" d="M58.8 35.1523H54V37.5523H58.8V35.1523Z" fill="black"/>
<path id="Vector_13" d="M66.0002 35.1523H61.2002V37.5523H66.0002V35.1523Z" fill="black"/>
<path id="Vector_14" d="M58.8 39.9521H54V42.3521H58.8V39.9521Z" fill="black"/>
<path id="Vector_15" d="M66.0002 39.9521H61.2002V42.3521H66.0002V39.9521Z" fill="black"/>
<path id="Vector_16" d="M58.8 44.7529H54V47.1529H58.8V44.7529Z" fill="black"/>
<path id="Vector_17" d="M66.0002 44.7529H61.2002V47.1529H66.0002V44.7529Z" fill="black"/>
<path id="Vector_18" d="M58.8 49.5527H54V51.9527H58.8V49.5527Z" fill="black"/>
<path id="Vector_19" d="M66.0002 49.5527H61.2002V51.9527H66.0002V49.5527Z" fill="black"/>
<path id="Vector_20" d="M58.8 54.3525H54V56.7525H58.8V54.3525Z" fill="black"/>
<path id="Vector_21" d="M66.0002 54.3525H61.2002V56.7525H66.0002V54.3525Z" fill="black"/>
<path id="Vector_22" d="M27.5996 36.3521C27.6049 40.9891 31.3627 44.7469 35.9996 44.7522C40.6388 44.7522 44.3996 40.9914 44.3996 36.3521C44.3996 31.7129 40.6388 27.9521 35.9996 27.9521C31.3604 27.9521 27.5996 31.7129 27.5996 36.3521ZM41.9996 36.3521C41.9996 39.6658 39.3133 42.3521 35.9996 42.3521C32.686 42.3521 29.9996 39.6658 29.9996 36.3521C30.0035 33.0401 32.6876 30.356 35.9996 30.3521C39.3133 30.3521 41.9996 33.0385 41.9996 36.3521Z" fill="black"/>
<path id="Vector_23" d="M34.8004 35.1527H32.4004V37.5527H37.2004V31.5527H34.8004V35.1527Z" fill="black"/>
</g>
<defs>
<clipPath id="clip0_2699_316">
<rect width="72" height="72" fill="white" transform="translate(0 0.352539)"/>
</clipPath>
</defs>
</svg>
